. 
  
http://www.torrentday.com/        :     The Hottest Private Tracker On The Net!!!


To Avoid Fakes, ALWAYS Check That The Torrent Was Added By: TvTeam.


               www . TorrentDay . Com 
(((((((((((((= Enjoy No RAR releases =))))))))))))))))))))

...................................NFO:....................................

.                                         
                                                                               
                                                                                
                                                              
                                                                           
                                                                           
                                                   
                                                                             
                                                                               
                                                  
                                                               
                                                         
                                                                                  
                                                                           
                                                                     
                                                                  
                                                                       
                                                                           
                                                                           
                                                                   
                                                               
                                                                 
                                           
                                                        
                                                               
                           _        _______          
                          ( (    /|(  ____ )|     /|
                          |    ( || (    )|| )   ( |
                          |    | || (____)|| | _ | |
                          | ( ) ||  _____)| |( )| |
                          | |    || (      | || || |
                          | )    || )      | () () |
                          |/    )_)|/       (_______)

 

                               _________ ______            ______  
             |     /||     /|__   __/(  __   |     /|(  __   
             (    / )| )   ( |   ) (   | (    )| )   ( || (    )
               (_) / | |   | |   | |   | |   ) || (___) || |   ) |
               ) _ (  ( (   ) )   | |   | |   | ||  ___  || |   | |
              / ( )    _/ /    | |   | |   ) || (   ) || |   ) |
             ( /    )     /  ___) (___| (__/  )| )   ( || (__/  )
             |/     |   _/   _______/(______/ |/     |(______/ 
                                                                   
                       ______   _______  _______  _______ 
                      / ___   / ___   )(  __   )(  ____ )
                      /   )  )/   )  || (  )  || (    )|
                          /  /     /   )| | /   || (____)|
                         /  /    _/   / | (/ /) ||  _____)
                        /  /    /   _/  |   / | || (      
                       /  /    (   (__/|  (__) || )      
                       _/     _______/(_______)|/       
                       
           
-==Our releases are in HD resolution and 5.1 sound whenever possible from the source. They work on computers, Xbox 360, PS3, WDHD TV, media servers, some blu ray players and some upscaling dvd players.==-


Source: IMAX Extreme (1999) Bluray 720p AVC AC3 AtZLIT

General
Complete name                    : IMAX Extreme 1999 BRRip MP4 720p-NPW.mp4
Format                           : MPEG-4
Format profile                   : Base Media
Codec ID                         : isom
File size                        : 1 009 MiB
Duration                         : 44mn 34s
Overall bit rate                 : 3 163 Kbps
Movie name                       : IMAX Extreme 1999 BRRip MP4 720p-NPW.mp4
Writing application              : Lavf52.78.3

Video
ID                               : 1
Format                           : AVC
Format/Info                      : Advanced Video Codec
Format profile                   : High@L3.1
Format settings, CABAC           : Yes
Format settings, ReFrames        : 3 frames
Codec ID                         : avc1
Codec ID/Info                    : Advanced Video Coding
Duration                         : 44mn 34s
Bit rate mode                    : Variable
Bit rate                         : 3 000 Kbps
Width                            : 1 280 pixels
Height                           : 720 pixels
Display aspect ratio             : 16:9
Frame rate mode                  : Constant
Frame rate                       : 23.976 fps
Resolution                       : 24 bits
Colorimetry                      : 4:2:0
Scan type                        : Progressive
Bits/(Pixel*Frame)               : 0.136
Stream size                      : 954 MiB (95%)
Writing library                  : x264 core 98 Ubuntu_2:0.98.1653+git88b90d9-3


Audio
ID                               : 2
Format                           : AAC
Format/Info                      : Advanced Audio Codec
Format version                   : Version 4
Format profile                   : LC
Format settings, SBR             : No
Codec ID                         : 40
Duration                         : 44mn 34s
Bit rate mode                    : Variable
Bit rate                         : 165 Kbps
Channel(s)                       : 2 channels
Channel positions                : L R
Sampling rate                    : 48.0 KHz
Resolution                       : 16 bits
Stream size                      : 52.7 MiB (5%) 
http://www.blu-ray.com/movies/Extreme-Blu-ray/1161/

Plot: An in-your-face look at extreme sports and the daredevil athletes that risk their lives for the thrill of adventure.